<svg width="214" height="65" viewBox="0 0 214 65" fill="none" xmlns="http://www.w3.org/2000/svg">
<rect x="2.01465" y="0.5" width="71" height="64" rx="10" fill="#0217EB"/>
<path d="M37.0136 23.85V45H31.1336V33.33L27.1436 45H22.2236L18.2036 33.24V45H12.3236V23.85H19.4336L24.7436 37.59L29.9336 23.85H37.0136ZM53.7407 41.55H46.2407L45.1007 45H38.9207L46.6307 23.85H53.4107L61.0907 45H54.8807L53.7407 41.55ZM52.2707 37.05L49.9907 30.21L47.7407 37.05H52.2707Z" fill="white"/>
<path d="M110.461 21.85V43H104.581V31.33L100.591 43H95.6708L91.6508 31.24V43H85.7708V21.85H92.8808L98.1908 35.59L103.381 21.85H110.461ZM121.638 43.21C119.958 43.21 118.448 42.86 117.108 42.16C115.788 41.46 114.748 40.46 113.988 39.16C113.228 37.86 112.848 36.33 112.848 34.57C112.848 32.83 113.228 31.31 113.988 30.01C114.768 28.71 115.818 27.71 117.138 27.01C118.478 26.31 119.988 25.96 121.668 25.96C123.348 25.96 124.848 26.31 126.168 27.01C127.508 27.71 128.558 28.71 129.318 30.01C130.098 31.31 130.488 32.83 130.488 34.57C130.488 36.31 130.098 37.84 129.318 39.16C128.558 40.46 127.508 41.46 126.168 42.16C124.828 42.86 123.318 43.21 121.638 43.21ZM121.638 38.11C122.458 38.11 123.138 37.81 123.678 37.21C124.238 36.59 124.518 35.71 124.518 34.57C124.518 33.43 124.238 32.56 123.678 31.96C123.138 31.36 122.468 31.06 121.668 31.06C120.868 31.06 120.198 31.36 119.658 31.96C119.118 32.56 118.848 33.43 118.848 34.57C118.848 35.73 119.108 36.61 119.628 37.21C120.148 37.81 120.818 38.11 121.638 38.11ZM143.89 26.02C145.83 26.02 147.37 26.67 148.51 27.97C149.65 29.25 150.22 30.99 150.22 33.19V43H144.34V33.97C144.34 33.01 144.09 32.26 143.59 31.72C143.09 31.16 142.42 30.88 141.58 30.88C140.7 30.88 140.01 31.16 139.51 31.72C139.01 32.26 138.76 33.01 138.76 33.97V43H132.88V26.17H138.76V28.57C139.28 27.81 139.98 27.2 140.86 26.74C141.74 26.26 142.75 26.02 143.89 26.02ZM152.487 34.57C152.487 32.83 152.797 31.31 153.417 30.01C154.057 28.71 154.917 27.71 155.997 27.01C157.097 26.31 158.317 25.96 159.657 25.96C160.817 25.96 161.817 26.19 162.657 26.65C163.497 27.11 164.147 27.73 164.607 28.51V26.17H170.487V43H164.607V40.66C164.147 41.44 163.487 42.06 162.627 42.52C161.787 42.98 160.797 43.21 159.657 43.21C158.317 43.21 157.097 42.86 155.997 42.16C154.917 41.46 154.057 40.46 153.417 39.16C152.797 37.84 152.487 36.31 152.487 34.57ZM164.607 34.57C164.607 33.49 164.307 32.64 163.707 32.02C163.127 31.4 162.407 31.09 161.547 31.09C160.667 31.09 159.937 31.4 159.357 32.02C158.777 32.62 158.487 33.47 158.487 34.57C158.487 35.65 158.777 36.51 159.357 37.15C159.937 37.77 160.667 38.08 161.547 38.08C162.407 38.08 163.127 37.77 163.707 37.15C164.307 36.53 164.607 35.67 164.607 34.57ZM179.717 28.51C180.177 27.73 180.827 27.11 181.667 26.65C182.507 26.19 183.497 25.96 184.637 25.96C185.977 25.96 187.187 26.31 188.267 27.01C189.367 27.71 190.227 28.71 190.847 30.01C191.487 31.31 191.807 32.83 191.807 34.57C191.807 36.31 191.487 37.84 190.847 39.16C190.227 40.46 189.367 41.46 188.267 42.16C187.187 42.86 185.977 43.21 184.637 43.21C183.497 43.21 182.507 42.98 181.667 42.52C180.847 42.06 180.197 41.44 179.717 40.66V51.04H173.837V26.17H179.717V28.51ZM185.837 34.57C185.837 33.47 185.537 32.62 184.937 32.02C184.357 31.4 183.637 31.09 182.777 31.09C181.917 31.09 181.187 31.4 180.587 32.02C180.007 32.64 179.717 33.49 179.717 34.57C179.717 35.67 180.007 36.53 180.587 37.15C181.187 37.77 181.917 38.08 182.777 38.08C183.637 38.08 184.357 37.77 184.937 37.15C185.537 36.51 185.837 35.65 185.837 34.57ZM200.108 28.51C200.568 27.73 201.218 27.11 202.058 26.65C202.898 26.19 203.888 25.96 205.028 25.96C206.368 25.96 207.578 26.31 208.658 27.01C209.758 27.71 210.618 28.71 211.238 30.01C211.878 31.31 212.198 32.83 212.198 34.57C212.198 36.31 211.878 37.84 211.238 39.16C210.618 40.46 209.758 41.46 208.658 42.16C207.578 42.86 206.368 43.21 205.028 43.21C203.888 43.21 202.898 42.98 202.058 42.52C201.238 42.06 200.588 41.44 200.108 40.66V51.04H194.228V26.17H200.108V28.51ZM206.228 34.57C206.228 33.47 205.928 32.62 205.328 32.02C204.748 31.4 204.028 31.09 203.168 31.09C202.308 31.09 201.578 31.4 200.978 32.02C200.398 32.64 200.108 33.49 200.108 34.57C200.108 35.67 200.398 36.53 200.978 37.15C201.578 37.77 202.308 38.08 203.168 38.08C204.028 38.08 204.748 37.77 205.328 37.15C205.928 36.51 206.228 35.65 206.228 34.57Z" fill="#F7F7FF"/>
</svg>
